<svg xmlns="http://www.w3.org/2000/svg" viewBox="0 0 128 69"><defs><style>.cls-1{opacity:0.5;}.cls-2{opacity:0.6;}</style></defs><title>Artboard 1</title><g id="Layer_2" data-name="Layer 2"><path d="M33,5.12a12.12,12.12,0,0,1-2,.1c-.73-.1-1.06-.52-1.66-.78s-.4.33-1.2-.39c-.14-.13-.22-.39-.36-.53a2.07,2.07,0,0,0-1.2-.46c-1.51-.34-2.32,0-3.78.48a10.51,10.51,0,0,1-5,.4,6.58,6.58,0,0,0-1.17-.35c-.83-.07-1.6-.06-2.45-.2A36.71,36.71,0,0,0,9.85,3.2a4,4,0,0,0-3.31,1A4.41,4.41,0,0,0,5,6.61a7.07,7.07,0,0,0-.1,1.52,4.8,4.8,0,0,1-.66,1.78A9.92,9.92,0,0,0,3.73,14c.06,3-.33,5.95-.09,9a18.07,18.07,0,0,1-.18,4.76,29.14,29.14,0,0,0-.15,4.48,20.31,20.31,0,0,0,.1,3.9c.32,1.74,1.06,3.26,1,5.07,0,3.11-1.07,6.11-1.36,9.19a33.93,33.93,0,0,0,.44,8A5.23,5.23,0,0,0,4,59.66a14.08,14.08,0,0,1,.33,1.77A2.25,2.25,0,0,0,6.1,63.07,7.31,7.31,0,0,0,9.19,63a6.92,6.92,0,0,1,2-.67c.81,0,1.68.29,2.51.35,1.58.11,3.19.06,4.76,0a5,5,0,0,1,2.59.4A8.48,8.48,0,0,0,23,64a16.31,16.31,0,0,0,3.82.26h2.57a8.48,8.48,0,0,1,3.06.15c.54.23,1,.68,1.53.91a9.35,9.35,0,0,0,2.15.51,44.12,44.12,0,0,0,4.54.71c2.73.16,5.82.23,8.27-1.13a13.39,13.39,0,0,1,2.18-1.23c.69-.22,1.46-.39,2.16-.55,1.74-.4,3.44.06,5.16.25,1.51.16,2.89-.32,4.39-.39,1.66-.07,3.34,0,5,0a16.66,16.66,0,0,1,4.82.57,13.86,13.86,0,0,0,4.36.23c1.48-.06,3,0,4.44,0a22.17,22.17,0,0,0,4.24-1c.81-.18,1.6,0,2.41-.16.57-.08,1.14-.24,1.71-.36a9.44,9.44,0,0,1,5.42.24A35.31,35.31,0,0,1,99.5,64.4a9.28,9.28,0,0,0,3.79,1c3.43.14,6.9,0,10.34,0,1.19,0,2.34.22,3.4-.4a12.65,12.65,0,0,1,2-.75,1.78,1.78,0,0,0,.85-.71,14.54,14.54,0,0,0,1.54-2.92c.43-1.06.47-2.29.8-3.4a34,34,0,0,0,.93-8.61c.1-3.36-.08-6.72.14-10.08a46,46,0,0,0-.46-9.23,40.52,40.52,0,0,1-.55-4.91c0-1.56.4-3,.44-4.57s.12-3.41,0-5.07c-.09-1.32-.56-2.51-.53-3.86,0-1.63.63-4.67-1.22-5.62a9.2,9.2,0,0,0-3.9-.51,23.13,23.13,0,0,1-5.32-.36c-2.81-.66-5.61-1.2-8.5-.55A39,39,0,0,0,99,5.07,9.61,9.61,0,0,1,93.47,5a17.19,17.19,0,0,0-4.12-.29,21,21,0,0,0-4.48.3,4.78,4.78,0,0,1-2.51.3,20.19,20.19,0,0,0-2.06-.57A13.72,13.72,0,0,0,76.16,5c-1.49.24-3,.41-4.44.75a7.89,7.89,0,0,1-2.55.34c-.79-.07-1.49-.5-2.27-.57a13.4,13.4,0,0,1-2.37,0,16.51,16.51,0,0,1-2.05-.7C61,4.18,59.53,3.46,58,2.94a9.1,9.1,0,0,0-3.71-.66c-1.49.12-2.42,1.15-3.78,1.6-1.6.53-3.16-.08-4.76-.24s-2.53.66-3.88,1c-1.55.39-3.44.09-5,.1-.85,0-1.57-.27-2.39-.32a7.79,7.79,0,0,0-1.58.33c-.48.07-.28.79.2.73a5.58,5.58,0,0,1,1.6-.26c.24,0,.51.18.75.22a9.27,9.27,0,0,0,1.9,0,26.83,26.83,0,0,0,4.3,0,13.42,13.42,0,0,0,2.13-.74,5.06,5.06,0,0,1,2.65-.2,11.14,11.14,0,0,0,3.5.27c1.32-.19,2.18-1.06,3.39-1.51,1.61-.6,3.38,0,4.92.54,1.24.45,2.44,1,3.67,1.52a8.77,8.77,0,0,0,3.92,1,5.53,5.53,0,0,1,2.29.25,5.23,5.23,0,0,0,1.52.23A34,34,0,0,0,74.08,6c1.45-.2,2.91-.51,4.36-.58A7.93,7.93,0,0,1,81,5.65a10.59,10.59,0,0,0,1.91.52c1.26.1,2.54-.57,3.82-.66a41.31,41.31,0,0,1,4.45,0c1.57.06,3,.62,4.53.76a9.1,9.1,0,0,0,4-.58,19.08,19.08,0,0,1,9.27-1.21c1.37.22,2.67.73,4,.92a41,41,0,0,0,4.57.12c1.42,0,3.39-.07,3.85,1.57.41,1.44,0,3,.07,4.46,0,1.11.46,2.12.53,3.21.11,1.67,0,3.4,0,5.07,0,1.31-.42,2.57-.44,3.89a24.83,24.83,0,0,0,.32,4,54,54,0,0,1,.77,9.41c-.12,3.2-.22,6.37-.21,9.57,0,1.51-.07,3-.17,4.51a28.17,28.17,0,0,1-.41,4.59c-.25,1.06-.64,2.07-.81,3.15a10.69,10.69,0,0,1-1.44,3.58c-.44.82-.9.91-1.75,1.17a8.73,8.73,0,0,0-1.17.62,5.25,5.25,0,0,1-2.55.3h-7.39a22.08,22.08,0,0,1-5.14-.23c-1.32-.33-2.44-1.12-3.74-1.51a37.08,37.08,0,0,0-4.08-1.17,10.08,10.08,0,0,0-3.71.2,18.85,18.85,0,0,1-2.33.47,11.77,11.77,0,0,0-1.78.05c-1.52.28-2.88,1-4.45,1.07s-3-.05-4.44,0a14,14,0,0,1-4.6-.33,14,14,0,0,0-4.12-.48c-1.44,0-2.89,0-4.33,0s-3.11.45-4.67.46c-1.27,0-2.53-.39-3.8-.45a13.85,13.85,0,0,0-4.38.66A20.73,20.73,0,0,0,48,65.06a12,12,0,0,1-5,.7,22.4,22.4,0,0,1-4.62-.37c-1.48-.26-3.21-.26-4.54-1a7.51,7.51,0,0,0-1.36-.81,5.85,5.85,0,0,0-1.82-.06c-1.53,0-3.07,0-4.6,0a8.85,8.85,0,0,1-4.58-1A6.29,6.29,0,0,0,18,62c-1.49,0-3,.07-4.48-.06-1.28-.1-2.31-.52-3.55-.05s-3,1-4.23.24c-.73-.44-.66-1-.78-1.76s-.47-1.19-.64-1.84a21.68,21.68,0,0,1-.48-3.68,32.33,32.33,0,0,1,0-4.51C4.12,47.46,5,44.68,5.19,41.8a11.79,11.79,0,0,0-.47-3.92A14.21,14.21,0,0,1,4,33.44c0-1.45-.05-2.92,0-4.37s.48-2.87.45-4.36-.28-3-.28-4.5c0-1.34.28-2.64.27-4a38.15,38.15,0,0,1,0-4.41c.13-1.22,1-2.14,1.09-3.31a8.14,8.14,0,0,1,.19-2A3.56,3.56,0,0,1,7.06,4.78a4.08,4.08,0,0,1,2.1-.88C10,3.84,11,4,11.9,4c1.32,0,2.58.35,3.89.37a10.54,10.54,0,0,1,1.78.33,10.83,10.83,0,0,0,1.89,0,11.5,11.5,0,0,0,3.73-.53,5.34,5.34,0,0,1,2.75-.56,5.93,5.93,0,0,1,.82.22c.64.26.52.44.91.86a1.33,1.33,0,0,0,.76.43,5.26,5.26,0,0,1,.76.13,5.06,5.06,0,0,1,.6.37A6.21,6.21,0,0,0,33,5.87c.48,0,.48-.77,0-.75Z"/><g class="cls-1"><path d="M30.23,63.89c0-.61.56-1,.92-1.42a15.91,15.91,0,0,0,1.07-1.6,25,25,0,0,0,1.85-3,8.48,8.48,0,0,0,.41-3.21A5,5,0,0,0,34.22,53a6.07,6.07,0,0,1-.16-2.08h-.75a12,12,0,0,0,.43,2.91,12.1,12.1,0,0,1,.58,2.72A2,2,0,0,1,34,57.93c-.22.25-.56.35-.77.62-.52.66,0,1.09.07,1.76l.19-.32a1.57,1.57,0,0,0-1,1.36,2.94,2.94,0,0,1-.29,1.2c-.24.4-.58.71-.8,1.12l.33-.18c-.35,0-.7-.45-1-.62l.19.32c0-.51.47-.8.79-1.15a1.58,1.58,0,0,0,.46-1c0-.48-.72-.48-.75,0s-.53.76-.81,1.08a1.61,1.61,0,0,0-.44,1.1.39.39,0,0,0,.19.33c.47.26.79.72,1.37.72a.37.37,0,0,0,.32-.19c.35-.66.95-1.12,1.09-1.89s0-1.18.73-1.53a.34.34,0,0,0,.19-.32,6.38,6.38,0,0,0-.26-.88c-.1-.56.43-.65.74-1a2.57,2.57,0,0,0,.56-1.89c0-1.92-1-3.69-1-5.63a.38.38,0,0,0-.75,0,8.1,8.1,0,0,0,0,1.84,8.18,8.18,0,0,1,.36,1.77,7,7,0,0,1-.65,3.64c-.59,1-1.29,2-1.92,3s-1.59,1.59-1.67,2.71c0,.48.71.48.75,0Z"/></g><g class="cls-1"><path d="M59.6,52.68a2.29,2.29,0,0,0,.7.52l.32.16.18.1.1.06s.09.07.05,0a1,1,0,0,1,.23.25.31.31,0,0,1,0,.12.88.88,0,0,1,0,.28,1.15,1.15,0,0,0,.33.86,1.72,1.72,0,0,0,.46.47.65.65,0,0,0,.88-.2c.06-.11.1-.22.16-.33s0,0,0,0l.06-.07.17-.18c.22-.26.45-.63.25-1A.84.84,0,0,0,63,53.4l-.19,0s-.12,0-.09,0,0,0,0,0a.8.8,0,0,0-.09-.14,8.86,8.86,0,0,1-.77-.73.37.37,0,0,0-.53.53,3,3,0,0,0,.35.37c.12.11.28.23.38.33s.11.15.17.21a.85.85,0,0,0,.3.15c.18,0,.31,0,.42.08l-.1-.16h0s0,0,0,0,0,0,0,0,0,0,0,.06a1.51,1.51,0,0,1-.17.2,2.61,2.61,0,0,0-.35.47,1.36,1.36,0,0,0-.1.21l.09-.07c.06,0,.16,0,0,0s0,0,0,0l0,0c-.07-.06-.12-.13-.18-.19l-.07-.09s0-.07,0,0,0,0,0,0a1.3,1.3,0,0,1-.1-.15s0,0,0,0a1.34,1.34,0,0,1,0-.2,1.25,1.25,0,0,0,0-.43,1.61,1.61,0,0,0-.83-.93l-.55-.29a1.24,1.24,0,0,1-.44-.34.37.37,0,0,0-.53,0,.4.4,0,0,0,0,.53Z"/></g><g class="cls-1"><path d="M10.3,4a.89.89,0,0,1,.12.57A1.45,1.45,0,0,0,10.3,5a1.22,1.22,0,0,0,.6.92,10,10,0,0,1,1.88,1.57c.28.36.1.82.43,1.19a3,3,0,0,1,.44.5c.08.13.15.26.24.39a2,2,0,0,0,.82.63c.17.08.27.09.3.28a1.21,1.21,0,0,1-.09.53l.55-.22v0l-.06-.17a1.14,1.14,0,0,0-.23-.3,2.33,2.33,0,0,0-.56-.36c-.46-.25-.71-.67-1.13-1a2.31,2.31,0,0,0-1.11-.33,5,5,0,0,1-.56-.09.94.94,0,0,1-.44-.13s0,.08,0,0a1.49,1.49,0,0,1,.14-.24.92.92,0,0,0,.07-.61c-.12-.48-.54-.7-.92-.95a3.21,3.21,0,0,0-.6-.34l-.38-.14A1.58,1.58,0,0,1,9.41,6c-.18-.13-.11-.48-.14-.68A2.28,2.28,0,0,0,9,4.53a.37.37,0,0,0-.64.38c.3.5.07,1.14.48,1.57s.85.34,1.24.56,1,.46.77.84-.33.72,0,1.06c.57.56,1.52.21,2.15.6.43.27.68.72,1.14,1,.21.11.48.21.59.43s.11.36.35.47a.38.38,0,0,0,.55-.22,1.52,1.52,0,0,0,0-1.13c-.18-.42-.58-.47-.92-.71a2.41,2.41,0,0,1-.56-.74c-.11-.17-.36-.31-.45-.48s0-.49-.12-.71a3,3,0,0,0-.89-1,8.15,8.15,0,0,0-.92-.75c-.19-.13-.77-.44-.75-.66,0-.06.07-.15.09-.21a1.31,1.31,0,0,0,0-.39A1.92,1.92,0,0,0,11,3.79c-.17-.45-.89-.25-.72.2Z"/></g><g class="cls-2"><path d="M26.93,30.62c-.22,0-.44,0-.66,0a2.64,2.64,0,0,1-.52,0,1.1,1.1,0,0,1-.26-.06c-.11,0,.05,0,0,0a.61.61,0,0,1-.14-.07,1.52,1.52,0,0,1-.36-.39,6.29,6.29,0,0,1-.53-1.15c-.07-.23-.14-.45-.19-.68a2.46,2.46,0,0,1-.08-.59h-.75c0,.31,0,.62,0,.94a1.11,1.11,0,0,0,.57.88,1.57,1.57,0,0,0,.6.16.38.38,0,0,1,.27.19c.08.13.13.28.2.41a1.5,1.5,0,0,0,.45.49.38.38,0,0,0,.38-.65c-.23-.16-.28-.48-.43-.7A1.13,1.13,0,0,0,25,29a2,2,0,0,0-.51-.11.4.4,0,0,1-.18-.07l-.08-.07,0-.06c-.05-.09,0,.05,0,0a.64.64,0,0,0,0-.07c0-.11,0,0,0,0,0-.29,0-.59,0-.88a.38.38,0,0,0-.75,0,4.64,4.64,0,0,0,.32,1.51,5.71,5.71,0,0,0,.64,1.37,1.85,1.85,0,0,0,1.16.81,8.35,8.35,0,0,0,1.42.06.38.38,0,0,0,0-.75Z"/></g><g class="cls-2"><path d="M54.05,23a3.73,3.73,0,0,1,.75,0,1.06,1.06,0,0,1,.54.31c.19.18.39.36.57.55s.33.35.32.56l.74-.1a4.58,4.58,0,0,0-1.75-2.44,1.91,1.91,0,0,0-1.44-.23c-.39.07-.75.21-1-.17a.38.38,0,0,0-.65.38,1.23,1.23,0,0,0,1.24.61c.4,0,.84-.23,1.23-.06a2.57,2.57,0,0,1,1,.89,4.07,4.07,0,0,1,.64,1.22.37.37,0,0,0,.73-.1c0-.7-.65-1.2-1.11-1.64a1.72,1.72,0,0,0-.83-.49,3.64,3.64,0,0,0-1-.05.38.38,0,0,0,0,.75Z"/></g><g class="cls-2"><path d="M93.88,35.06c-.25,0-.49,0-.74.06s-.52.07-.69-.07,0-.11,0-.23.17-.24.24-.36a2.11,2.11,0,0,0,.29-.83,1.36,1.36,0,0,0-.68-1.28,11.41,11.41,0,0,0-1.62-1.16.37.37,0,0,0-.51.51,7.49,7.49,0,0,1,.38.81c.11.29.17.59.27.88A12.88,12.88,0,0,0,91.56,35c.25.56.29,1.19.59,1.74a4.24,4.24,0,0,1,.33.59,1.93,1.93,0,0,1,.08.68.38.38,0,0,0,.75,0A2.43,2.43,0,0,0,93,36.61a3.27,3.27,0,0,1-.39-.9,7.32,7.32,0,0,0-.29-.94c-.23-.55-.56-1.06-.74-1.63-.09-.31-.16-.62-.28-.92s-.28-.6-.43-.9l-.51.51a4.39,4.39,0,0,1,.84.59c.26.21.55.39.82.6.51.41.19.91-.11,1.35a.89.89,0,0,0,.35,1.42,4.16,4.16,0,0,0,1.65,0,.38.38,0,0,0,0-.75Z"/></g><g class="cls-2"><path d="M93.73,51.17a1.89,1.89,0,0,1-1.14-.55,3.74,3.74,0,0,1-.87-1,5.83,5.83,0,0,0-.48-1A1.32,1.32,0,0,0,90,48.33a.4.4,0,0,0-.38.38.38.38,0,0,0,.38.37c.35,0,1.08-.15,1.31.22.14.21.09.54.17.78a3.75,3.75,0,0,0,.38.78,2.56,2.56,0,0,0,.58.65A1.65,1.65,0,0,1,93,52a.88.88,0,0,1-.11.61,1.87,1.87,0,0,0-.14.81.38.38,0,0,0,.38.37.38.38,0,0,0,.37-.37,2,2,0,0,1,.19-.82,1.27,1.27,0,0,0,0-.84,1.84,1.84,0,0,0-.62-.74,2.39,2.39,0,0,1-.61-.69,1.87,1.87,0,0,1-.3-.78,1.26,1.26,0,0,0-.39-.9A2.35,2.35,0,0,0,90,48.33v.75a1.84,1.84,0,0,1,.58,0s.1.06,0,0,.08.08,0,0a1.24,1.24,0,0,1,.1.2c0,.1.13.34.2.48a2.47,2.47,0,0,0,.31.52,5.08,5.08,0,0,0,1.1,1.07,2.29,2.29,0,0,0,1.34.51.38.38,0,0,0,0-.75Z"/></g><g class="cls-2"><path d="M84.14,5.87c.3.18,1,.53,1,1s-.66.65-.93.83a8.11,8.11,0,0,0-1.89,1.56,2.65,2.65,0,0,0-.52,1,6.32,6.32,0,0,0-.06,1.44,12.24,12.24,0,0,1-.29,1.44,11.29,11.29,0,0,0,0,1.54h.75a17.32,17.32,0,0,0,0-2A3.93,3.93,0,0,1,82,10.69,6.83,6.83,0,0,1,82.86,9a2.12,2.12,0,0,0,.55-1.25c0-.76-.73-1.11-1.34-1.35-.35-.13-.72-.23-1.06-.39s-.5-.41-.56-.9-.79-.48-.75,0a1.88,1.88,0,0,0,.42,1.21,2.61,2.61,0,0,0,.91.5c.42.17,1.58.36,1.63.93s-.56,1-.78,1.36a6.7,6.7,0,0,0-.69,1.66,4.25,4.25,0,0,0,.15,1.77,13.24,13.24,0,0,1,0,2.09.38.38,0,0,0,.75,0,8,8,0,0,1,0-1.69,5.78,5.78,0,0,0,.26-1.54,2.36,2.36,0,0,1,.31-1.56,4.41,4.41,0,0,1,1.08-1c.63-.45,1.56-.86,1.91-1.59.45-.91-.56-1.59-1.23-2a.37.37,0,0,0-.38.64Z"/></g><g class="cls-2"><path d="M83,6a2.14,2.14,0,0,0,.92.89l.48.23.22.14.08.07a.63.63,0,0,1,.1.12l-.09-.37c0-.06,0,0,0,0s0,0,0,0,.06,0,0,0-.08,0,0,0l-.07,0s.06,0,0,0h-.08a3.81,3.81,0,0,1-.64-.24c-.31-.12-.67-.06-1-.22,0,0,0,0,0,0l0,0s0,0,0,0,0-.1,0,0l0-.09c0,.07,0,0,0,0s0,0,0,0a.93.93,0,0,0,0-.13l-.09.17a.73.73,0,0,0,.12-.91.37.37,0,0,0-.64.38c0,.06,0,0,0-.06s0,0,0,0a0,0,0,0,1,0,0,.81.81,0,0,0-.15.45.94.94,0,0,0,.15.63,1.15,1.15,0,0,0,.66.45l.38.1.19,0h.19l.05,0,.1,0,.21.09a1.91,1.91,0,0,0,.45.13A1,1,0,0,0,85,7.8a1,1,0,0,0,.41-.53.39.39,0,0,0-.09-.37,2.8,2.8,0,0,0-.94-.62,1.47,1.47,0,0,1-.76-.67A.37.37,0,0,0,83,6Z"/></g><g class="cls-2"><path d="M11.6,49.34a14.9,14.9,0,0,0,1.89,0,2.89,2.89,0,0,0,1.76-.84.39.39,0,0,0,0-.53,1.21,1.21,0,0,0-.83-.33,2.17,2.17,0,0,1-.68,0l.26.46a1,1,0,0,0-.13-.74.75.75,0,0,0-.62-.33c-.34,0-.68,0-1,0a.38.38,0,0,0,0,.75c.37,0,.74,0,1.1,0l-.19-.06.08,0c.08.06,0,0,0,.05s0,0,0,0,0,.08,0,.08a.4.4,0,0,0,.27.46,1.61,1.61,0,0,0,.69.07c.2,0,.35,0,.49.11V48a2.13,2.13,0,0,1-1.37.63c-.58,0-1.17,0-1.75,0a.38.38,0,0,0,0,.75Z"/></g><g class="cls-2"><path d="M117.6,22c0,1.3,0,2.59,0,3.89a4.47,4.47,0,0,1-.29,1.78,4.87,4.87,0,0,0-.38,1.5,15.7,15.7,0,0,1-.41,3.62,5.44,5.44,0,0,1-.66,1.5,6.48,6.48,0,0,0-.53.76,5.24,5.24,0,0,1-.29.64.39.39,0,0,0,.33.57,2.22,2.22,0,0,0,1.46-.22.4.4,0,0,0,.14-.52c-.32-.5-.77-.53-1.28-.75l.17.42c.27-1,1.77-1.15,2.35-2a.37.37,0,0,0,0-.38,2.47,2.47,0,0,0-1.33-1.13,6.81,6.81,0,0,0-.76-.26c-.08,0-.35-.08-.38-.19s.45-.46.48-.49a.38.38,0,0,0,.06-.46l-.4-.63V30a5.58,5.58,0,0,0,.77-2.26,2.15,2.15,0,0,0-1-1.66c-.37-.3-.9.22-.53.53s.84.77.67,1.41a7.35,7.35,0,0,1-.61,1.6.39.39,0,0,0,0,.38l.4.63.06-.45c-.23.28-.71.53-.77.9a.86.86,0,0,0,.39.77c.76.55,1.74.35,2.25,1.31v-.38c-.67.94-2.07.88-2.42,2.15a.38.38,0,0,0,.17.43c.31.13.82.19,1,.48l.13-.51c-.31.23-.72.12-1.08.12l.32.56a3.53,3.53,0,0,0,.25-.56,5.18,5.18,0,0,1,.57-.84,5.65,5.65,0,0,0,.67-1.48,12.6,12.6,0,0,0,.48-3.51c0-1.25.69-2.29.69-3.54s0-2.76,0-4.14a.38.38,0,0,0-.75,0Z"/></g></g></svg>
