<svg id="Layer_1" data-name="Layer 1" xmlns="http://www.w3.org/2000/svg" viewBox="0 0 367.15 177.16"><defs><style>.cls-1{fill:#e8e8e8;}.cls-2{fill:#83d29d;}.cls-3{opacity:0.7;}.cls-4{fill:#3d3d3d;}</style></defs><title>Artboard 4</title><path class="cls-1" d="M238.81,50.61V65.12L214.94,42.66l0,0-.06,0-.07,0-.09,0s0,0-.08,0l-.13.05-.18.07h0L214,43l-.85.34-.43.17-.46.18-.51.2-6.41,2.51-.79.31L201.22,48v-.12c0-.81.21-5.59,8.28-9.33l16.94-6.12a17.74,17.74,0,0,1,5.16,2.8C235,37.83,238.81,42.55,238.81,50.61Z"/><path class="cls-2" d="M232.41,36.05a17.64,17.64,0,0,0-5.16-2.81l-16.94,6.13C202.23,43.1,202,47.89,202,48.7l-15.46,5.91-1.46-3.16-1.49-3.2L227.2,25.1S235.12,31.88,232.41,36.05Z"/><path class="cls-2" d="M232.41,36.05a5.56,5.56,0,0,1-2.72,2c-2.71,1.07-8,3.11-14,5.41l-.06,0-.07,0-.09,0-.09,0-.12,0-.19.07L202,48.7c0-.81.21-5.6,8.29-9.33l16.94-6.13A17.64,17.64,0,0,1,232.41,36.05Z"/><path class="cls-2" d="M317.07,42.64S313.33,72.76,272.47,80c0,0,2.49,11.75,9.76,10.87s29-17.22,34.84-16.09,11.47,9.4,11.47,9.4Z"/><g class="cls-3"><path class="cls-1" d="M70.16,104.27,207.23,55.55S229,59.32,228.76,81.47s-2.56,29.85-62.13,21.14c0,0-73.43,10.27-84.95,6Z"/></g><path class="cls-4" d="M341.9,156.23H129.51l-.15,0L19.84,141.14l-.5-.43c-.25-.21-6-5.28-6.38-13-.24-5,1.85-9.88,6.23-14.46l.81-.85,1.17.2c1.06.19,98.1,17.07,142.53,17.07,3.79,0,7.19-.12,10.12-.39,37.69-3.42,166-2.89,167.26-2.88h1.39l.6,1.25c.38.79,9.27,19.48-.54,28Zm-212.09-4.44H340.18c4.75-5.06,1.64-15.78-.54-20.92-14.22,0-130.08-.33-165.42,2.88-3.09.28-6.67.41-10.64.41-42.56,0-130.07-14.87-142-16.93-3,3.37-4.37,6.83-4.22,10.28.21,4.68,3.27,8.24,4.42,9.42Z"/><path class="cls-4" d="M20.38,117.05a2.11,2.11,0,0,1-1-.24,2.21,2.21,0,0,1-1-3,38.6,38.6,0,0,1,8.18-10.2c7.24-6.43,15.91-9,25.07-7.49a2.21,2.21,0,1,1-.72,4.37C32,97.36,22.45,115.66,22.36,115.84A2.21,2.21,0,0,1,20.38,117.05Z"/><path class="cls-4" d="M67.83,100.81a71.52,71.52,0,0,1-9.15-.69,2.22,2.22,0,0,1,.64-4.39c3.8.55,10.83,1.07,13.52.1C77,94.34,212.74,41.11,214.11,40.57l1.46-.57,1,1.19a181.23,181.23,0,0,0,20.12,19.45c14.63,12,27,17.2,35.68,15.17,17.71-4.13,28.5-10.3,31.73-13a2.22,2.22,0,0,1,2.85,3.4c-.41.34-10.28,8.46-33.57,13.9a21.24,21.24,0,0,1-4.86.54c-21.49,0-48.55-29-54.27-35.4C198.8,51.34,78.36,98.56,74.34,100A20.67,20.67,0,0,1,67.83,100.81Z"/><path class="cls-4" d="M336.66,74.43a2.22,2.22,0,0,1-2.13-1.6c-2.89-9.88-8-25.72-10.4-28.86a2.47,2.47,0,0,0-1.76-1.15,5.73,5.73,0,0,0-3.46,1.2l-5.15,13.25a2.22,2.22,0,1,1-4.13-1.61l5.58-14.34.42-.37c.35-.3,3.55-2.94,7.21-2.54a6.93,6.93,0,0,1,4.84,2.9C331.27,46.1,338,69,338.79,71.59a2.22,2.22,0,0,1-1.51,2.75A2.27,2.27,0,0,1,336.66,74.43Z"/><path class="cls-4" d="M341.31,91.78A1.82,1.82,0,0,1,339.5,90c0-3.16-2.12-8.88-2.93-10.82a1.81,1.81,0,1,1,3.34-1.4c.13.31,3.21,7.68,3.21,12.22A1.82,1.82,0,0,1,341.31,91.78Z"/><path class="cls-4" d="M338.1,130.3a2.22,2.22,0,0,1-1.73-3.61l1.87-2.31c3.09-6.25,1.93-22.63,1.21-28.47a2.22,2.22,0,1,1,4.4-.54c.11.92,2.72,22.67-1.77,31.25l-.1.19-2.16,2.67A2.2,2.2,0,0,1,338.1,130.3Zm2-4.71h0Z"/><path class="cls-4" d="M87.32,100.14a2.2,2.2,0,0,1-1.74-.85L78.09,89.7A2.22,2.22,0,0,1,81.58,87l7.49,9.59a2.21,2.21,0,0,1-1.75,3.58Z"/><path class="cls-4" d="M103.74,95.35a2.22,2.22,0,0,1-2.06-1.4L96.21,80.23a2.22,2.22,0,1,1,4.12-1.64l5.47,13.72a2.22,2.22,0,0,1-1.24,2.88A2.17,2.17,0,0,1,103.74,95.35Z"/><path class="cls-4" d="M122.18,88.49a2.22,2.22,0,0,1-2-1.15l-6.91-12.63a2.22,2.22,0,1,1,3.89-2.13l6.91,12.63a2.21,2.21,0,0,1-.88,3A2.16,2.16,0,0,1,122.18,88.49Z"/><path class="cls-4" d="M142.05,81.63a2.2,2.2,0,0,1-1.91-1.1l-7.78-13.25A2.21,2.21,0,0,1,136.18,65L144,78.29a2.21,2.21,0,0,1-.79,3A2.18,2.18,0,0,1,142.05,81.63Z"/><path class="cls-4" d="M161.63,75.87a2.21,2.21,0,0,1-2-1.25l-8.35-17.25a2.22,2.22,0,1,1,4-1.94l8.35,17.25a2.22,2.22,0,0,1-2,3.19Z"/><path class="cls-4" d="M182.28,68.38A2.22,2.22,0,0,1,180.23,67L173.7,51.47a2.22,2.22,0,1,1,4.09-1.72l6.53,15.55a2.22,2.22,0,0,1-1.19,2.9A2.16,2.16,0,0,1,182.28,68.38Z"/><path class="cls-4" d="M182.27,57a2.14,2.14,0,0,1-.74-.13A2.22,2.22,0,0,1,180.19,54c.13-.37,3.31-9.09,10.87-13.29,6.89-3.83,27.29-13.48,28.16-13.89a2.22,2.22,0,1,1,1.89,4c-.21.1-21.13,10-27.9,13.76-6.07,3.37-8.82,10.83-8.85,10.9A2.21,2.21,0,0,1,182.27,57Z"/><path class="cls-4" d="M243,36.58a2.23,2.23,0,0,1-2-1.35c-1.13-2.68-4.58-10.18-6.88-12.68a.75.75,0,0,0-.6-.26h0c-1.49,0-4.09,1.94-5.38,3.25a2.21,2.21,0,1,1-3.16-3.1c.75-.77,4.68-4.58,8.54-4.58h.09a5.15,5.15,0,0,1,3.8,1.68c3.24,3.52,7.26,12.9,7.71,14A2.23,2.23,0,0,1,243,36.58Z"/><path class="cls-4" d="M238.81,67.34a2.22,2.22,0,0,1-1.21-4.08c.57-.37,13.54-9,7.39-21.7a2.22,2.22,0,1,1,4-1.94c3.27,6.75,2.72,13.66-1.59,20A28.8,28.8,0,0,1,240,67,2.21,2.21,0,0,1,238.81,67.34Z"/><path class="cls-1" d="M38.9,126.29a.93.93,0,0,1-.23,0l-14.75-3.41a1,1,0,1,1,.45-2l14.76,3.4a1,1,0,0,1,.75,1.21A1,1,0,0,1,38.9,126.29Z"/><path class="cls-1" d="M60.47,129.25l-.2,0-14.76-3a1,1,0,1,1,.4-2l14.75,3a1,1,0,0,1-.19,2Z"/><path class="cls-1" d="M82.94,132.88H82.8L67.13,130.6a1,1,0,0,1,.29-2l15.67,2.27a1,1,0,0,1-.15,2Z"/><path class="cls-1" d="M105.65,135.83l-.19,0-15.67-2.95a1,1,0,0,1,.38-2l15.66,3a1,1,0,0,1-.18,2Z"/><path class="cls-1" d="M127.37,138.26h-.14l-15.52-2.14a1,1,0,0,1,.27-2l15.52,2.13a1,1,0,0,1-.13,2Z"/><path class="cls-1" d="M149.46,139.46h-.06l-16.34-.91a1,1,0,1,1,.11-2l16.34.91a1,1,0,0,1,0,2Z"/><path class="cls-1" d="M172.16,140.37h-.06l-15.21-.91a1,1,0,1,1,.12-2l15.21.91a1,1,0,0,1-.06,2Z"/><rect class="cls-1" x="253.86" y="136.18" width="80.02" height="12.26" rx="5.91"/><path class="cls-1" d="M297.66,113.59s15-1.93,22.36,2.27,11.35-9.3,11.35-9.3,1.48-15.78-7.94-15.67-31.1,14.65-31.1,14.65-22.59,1.36-24.18,4.08-5.9,4-2.61,7.66l3.29,3.69S285.63,119.72,297.66,113.59Z"/><circle class="cls-4" cx="203.36" cy="58.38" r="4.06"/><path class="cls-4" d="M277.34,79.08a2.22,2.22,0,0,1-.58-4.36l1.71-.47a2.22,2.22,0,0,1,1.17,4.28l-1.71.47A2.39,2.39,0,0,1,277.34,79.08Z"/></svg>
