<svg id="Layer_1" data-name="Layer 1" xmlns="http://www.w3.org/2000/svg" viewBox="0 0 710 900"><defs><style>.cls-1{fill:#c66d6d;}.cls-2{fill:none;}.cls-3,.cls-7{fill:#fff;}.cls-3{stroke:#3d3d3d;stroke-miterlimit:10;stroke-width:5px;}.cls-4{fill:#e8e8e8;}.cls-5{fill:#83d29d;}.cls-6{fill:#3d3d3d;}</style></defs><title>Artboard 12</title><circle class="cls-1" cx="356.34" cy="438.87" r="324.85"/><line class="cls-2" x1="645.77" y1="769.99" x2="627.22" y2="774.84"/><line class="cls-2" x1="617.64" y1="777.35" x2="586.49" y2="785.5"/><line class="cls-2" x1="577.45" y1="787.87" x2="576.4" y2="788.14"/><path class="cls-3" d="M153.67,185.55c.39-2,.65-3.54.78-4.78a5.88,5.88,0,0,0-1.37-4c.52-2.08.95-3.71,1.27-4.88a13.13,13.13,0,0,0,.1-4.88,21.68,21.68,0,0,1,5.37-8.6,39.13,39.13,0,0,1,7.91-6,55.16,55.16,0,0,1,9-4.1c3.13-1.11,6.06-2,8.79-2.84a.69.69,0,0,0-.78-.78c-.52,0-.65-.32-.39-1a143.16,143.16,0,0,0,21.19-5.67q10.65-3.71,21.78-6.64a116.68,116.68,0,0,1,22.85-3.61,73.05,73.05,0,0,1,24.61,3,20.33,20.33,0,0,0,2.15,4.49c.91,1.43,1.86,2.83,2.83,4.2s1.86,2.7,2.64,4a9.59,9.59,0,0,1,1.37,4.1,20.88,20.88,0,0,1,3.8,4.59q1.47,2.44.49,6.55-2.15,1.56-4.49,3.12t-4.88,2.93a57.61,57.61,0,0,0-17.58-1.56q-8.79.59-15.82,1.36a6.37,6.37,0,0,0-5.08-2.24,26.88,26.88,0,0,0-6.15,1c-2.15.58-4.27,1.17-6.35,1.75a14.1,14.1,0,0,1-5.86.49,11.53,11.53,0,0,1-5.66,2.64c-2.35.46-4.82.81-7.42,1.07a1.21,1.21,0,0,0,.39,1.37c.39.26.45.78.19,1.56a7,7,0,0,0,3.71,2.44c1.57.46,3.16.88,4.79,1.27a17.86,17.86,0,0,1,4.39,1.66,5.14,5.14,0,0,1,2.54,3.42,12.07,12.07,0,0,1,6.06,1.86,16.72,16.72,0,0,1,4.29,4,15.47,15.47,0,0,1,2.54,5,12.88,12.88,0,0,1,.59,4.79c.52,1.3,1.07,1.82,1.66,1.56s1.27.07,2,1a15.77,15.77,0,0,0,3.61,6.15,25.66,25.66,0,0,1,4.4,6.93c.26,3.91.49,7.42.68,10.55A19.65,19.65,0,0,1,249,232a48.75,48.75,0,0,1-9.57,15.43,74,74,0,0,1-14.16,12,111.08,111.08,0,0,1-16.7,9,151.51,151.51,0,0,1-17.38,6.35,4.46,4.46,0,0,0-1.86,0c-.71.13-.88-.26-.49-1.17a8,8,0,0,1-4,1.95,23.79,23.79,0,0,1-4.88.3q-2.64-.11-5.28-.3a22.27,22.27,0,0,0-5.17.2,39.82,39.82,0,0,1-2.83-3.13,12.28,12.28,0,0,1-2-3.71,1,1,0,0,1-.88-1.27c.06-.71-.23-1.07-.88-1.07a2.73,2.73,0,0,1,.19-1.17l.39-.79q.78-.58.69-.87a1.31,1.31,0,0,0-.59-.59,9.63,9.63,0,0,1-1-.68.83.83,0,0,1-.29-1,6.83,6.83,0,0,0,.69-4.2c-.2-1.63-.37-3.29-.49-5a14.52,14.52,0,0,1,.39-4.79,6.36,6.36,0,0,1,3.32-3.8A48.44,48.44,0,0,0,181.3,243a74.74,74.74,0,0,0,13.48-4.3,129.74,129.74,0,0,0,12.11-6q5.76-3.22,11.23-6a8.33,8.33,0,0,1,1.86-3.32c.84-.91,1.72-1.78,2.63-2.63a25.36,25.36,0,0,0,2.54-2.74,9.82,9.82,0,0,0,1.76-3.61,1.76,1.76,0,0,0,0-1.17,2,2,0,0,0-.59-.69,6.77,6.77,0,0,1-.78-.68,1.59,1.59,0,0,1-.39-1.17c-.39-.13-.75-.26-1.07-.39a2.45,2.45,0,0,0-.88-.2,71.57,71.57,0,0,0-10.74-4.29,52.42,52.42,0,0,1-9.57-3.91,5.18,5.18,0,0,1-4.69.78q-2.34-.78-5.66-1.56A140.91,140.91,0,0,1,177,199.62a59.7,59.7,0,0,1-14.16-4.11,9.07,9.07,0,0,0-1-2q-.59-.87-2.73-.48a42.92,42.92,0,0,0-2.84-3.62A20.49,20.49,0,0,1,153.67,185.55Z"/><path class="cls-3" d="M146.05,495.08l2.54-1.95.2-4.1q4.88-11.91,10.05-22.85t10.84-22.46c1.18-2.47,2.38-5,3.62-7.42s2.44-5,3.61-7.62a6.86,6.86,0,0,1-.2-1.66,6.36,6.36,0,0,1,.4-2,70.89,70.89,0,0,0,4.39-7c1.1-2.09,2.18-4.23,3.22-6.45,1.17-2.6,2.44-5.21,3.81-7.81a42.79,42.79,0,0,1,5.18-7.62l1.36-1.95,2.15.19a12.27,12.27,0,0,1,1.66-.68,7.15,7.15,0,0,1,2.25-.29l3.51.58a34.2,34.2,0,0,0,11.43-8.49A110.3,110.3,0,0,0,226.13,372l2.34-3.32,3.13,1.95a13.2,13.2,0,0,0,3.12,1.17c1.43.39,2.93.85,4.49,1.37q4.11,1,8,2.25a14.93,14.93,0,0,1,6.06,3.41l1,1.76c.26,1.44.49,2.74.69,3.91s.42,2.34.68,3.51q.78,4.11,1.37,8.11a85.34,85.34,0,0,1,.78,8.89q1,3.9,1.85,7.91c.59,2.67,1.14,5.3,1.67,7.91q1,5.65,2.14,10.84a60.32,60.32,0,0,0,3.13,9.86,8.09,8.09,0,0,1,2.34.19,17,17,0,0,1,5.47-1.17l2.54-.19.78,2.34a7.8,7.8,0,0,0,1,1.17,11.89,11.89,0,0,0,1.37,1.17,8.88,8.88,0,0,1,4.58,1.27,22.35,22.35,0,0,1,2.45,2,11.31,11.31,0,0,0,1,.88,5.31,5.31,0,0,0,1,.69l3.52,1.36-2,3.72a28.75,28.75,0,0,1-6.54,8,40.16,40.16,0,0,1-9.86,6.45,12.92,12.92,0,0,1,.48,2.54,18.09,18.09,0,0,0,.49,2.73c.52,2.61,1,5.31,1.27,8.11a35.69,35.69,0,0,1-.1,8.69,47,47,0,0,1-4.59,9.08,36.43,36.43,0,0,1-6.25,7.23,32.27,32.27,0,0,1-8.1,5.27A24.73,24.73,0,0,1,248,515.4a13.38,13.38,0,0,1-4-1.37,21.9,21.9,0,0,1-2.25-1.56,12.47,12.47,0,0,0-2.54-1.57l-2.53-1.17.78-2.93a3.08,3.08,0,0,0-.1-2.73,15.82,15.82,0,0,0-2.83-3.13,8.35,8.35,0,0,1-1.37-1.27c-.39-.45-.85-.94-1.37-1.46l-3.9-4.49,6.44-1.76q5.86-1.56,7.81-4c1.3-1.63,1.83-4.53,1.57-8.7a20.21,20.21,0,0,0-8-.29c-2.08.46-4.17.95-6.25,1.47q-4.5,1.17-8.79,2.05a47.28,47.28,0,0,1-9.37.88,45.37,45.37,0,0,1-7-.59l-2.14-.2-.59-2.14a1.37,1.37,0,0,0-.49-.88l-.88-.88c-.65-.78-1.43-1.82-2.34-3.13a5.63,5.63,0,0,1-.59-4.88,9.8,9.8,0,0,1-1.56-4.49,22.32,22.32,0,0,0-1.27,3c-.33,1-.62,1.92-.88,2.83l-.78,2.54-2.54.39a3.19,3.19,0,0,0-.68,1.17,1.51,1.51,0,0,0-.1,1.17l.78,2.15-1.95,1.76a3.48,3.48,0,0,1-1,1,6.45,6.45,0,0,0-1,.79,27.67,27.67,0,0,1-1.08,4.1c-.46,1.3-1,2.6-1.46,3.9-.66,2.09-1.27,4.1-1.86,6.06a20.12,20.12,0,0,0-.88,5.86l-.78,2.54a6.42,6.42,0,0,1-2.44,2.34c-1,.52-1.92,1-2.83,1.37a8.33,8.33,0,0,0-2.74,1.56l-.58,2.54-2.93.39c-1.7.39-2.9.65-3.62.78a13.67,13.67,0,0,1-2.44.2l-2.54-.2q-2.34-2.34-3.81-3.61a16,16,0,0,0-3.41-2.25L151.71,507a9.71,9.71,0,0,1-1-2.83,21.45,21.45,0,0,0-.59-2.64A7.88,7.88,0,0,0,149,498Zm62.31-50.78q-2.75,3.92-5.28,8.21a18.69,18.69,0,0,1,2.64-.2,18.86,18.86,0,0,0,2.64-.19q6.82-.39,12.69-1t12.7-1.95q-1.58-7.23-3.42-14.75t-4-15.14l-1,2A135.5,135.5,0,0,0,216,432.58a94.35,94.35,0,0,0-7.42,11.53Z"/><path class="cls-3" d="M180.23,760.08q-17.19-2.34-20.9-18.16l.2-2.15c.52-1.56,1.1-3.32,1.76-5.27.65-2.21,1.36-4.4,2.14-6.54a14.64,14.64,0,0,1,3.91-5.77q.58-1.76,2.25-5.37T175.15,706q3.12-5.65,5-9c1.24-2.21,2.25-3.91,3-5.08a28.67,28.67,0,0,0-5.47-6.84q-3.12-5.85-5.37-11.23a79.56,79.56,0,0,1-3.42-9.66,41.88,41.88,0,0,0-1.56-9.57l-1.17-5.08a23.41,23.41,0,0,1-.59-5.28,15.67,15.67,0,0,1-1.37-3.51l.4-2.35a5.76,5.76,0,0,0,.48-4.19c-.32-1.76-.75-3.55-1.27-5.38s-.75-3.48-1.07-5.37a22.73,22.73,0,0,1-.29-5.56,13.74,13.74,0,0,1,1.46-5.28,10.36,10.36,0,0,1,4.4-4.29l2-1.37,1.95,1.17a46.22,46.22,0,0,0,4.1,2.35l3.91,1.95c1.56.78,3.13,1.59,4.69,2.44s3.25,1.79,5.08,2.83l1.95,1.37-.2,2.15a3.21,3.21,0,0,0,.2,1,2.37,2.37,0,0,0,.59,1l2.14.59.2,2.73v2.34a10.4,10.4,0,0,0,.19,2.45,4.51,4.51,0,0,0,.79,1.46l1,2.54a30,30,0,0,0,.59,6.25c.39,1.82.84,3.65,1.37,5.47a41.75,41.75,0,0,1,1.56,5.56,19.28,19.28,0,0,1,.19,6.16,9.23,9.23,0,0,0,2.35-1.76,9.92,9.92,0,0,1,.88-.78c.32-.26.68-.52,1.07-.78l13.67-18.56-.39-2.34,4.88-4.69q2-1.56,3.71-3.22a15.13,15.13,0,0,0,2.93-3.81l1.18-1.76a36.32,36.32,0,0,1,22.65-14.45l3.32-.78,1,3.12a10.15,10.15,0,0,0,3.81,4.79c1.88,1.36,3.93,2.7,6.15,4l2.15,1.37a9,9,0,0,1,1.17,3.51,8.83,8.83,0,0,1-.19,2l1,2.54c-1.43,3.77-3,6.48-4.69,8.1a69,69,0,0,1-5.27,4.59c-1.43,1.17-2.73,2.35-3.91,3.52a13.24,13.24,0,0,0-2.73,3.9l-1.56,2a11.71,11.71,0,0,0-6.25,7.42l-.78,2.73h-2.93c-.13,0-.46.3-1,.88a21.57,21.57,0,0,0-2.34,4.2c-1.18,1.56-2,2.57-2.44,3l-1.08,1.07c-.26.66-.49,1.24-.68,1.76s-.43,1.17-.69,2l-1.17,1.57a11.47,11.47,0,0,0-2.54,3c-.52,1-1.1,2.12-1.75,3.42s-1.11,2.38-1.76,3.61a15.36,15.36,0,0,1-2.74,3.62l.39,2.15-1.56,1.36a13.27,13.27,0,0,0-2.73,3.42c-.78,1.37-1.57,2.77-2.35,4.2s-1.63,3.13-2.54,4.69a18.21,18.21,0,0,1-3.51,4.3A48.54,48.54,0,0,1,210.8,713a25.32,25.32,0,0,1-3.62,4.69q-2.34,9.38-11.13,20.12a11.31,11.31,0,0,1-1.27,4.2,44,44,0,0,1-2.24,3.81c-.27.52-.56,1.07-.88,1.66s-.56,1-.69,1.27l-.58,2.14a17.39,17.39,0,0,1-2.44,3.52c-.85.91-1.66,1.76-2.45,2.54a4.93,4.93,0,0,0-1.07,1c-.33.39-.62.71-.88,1Z"/><path class="cls-4" d="M652.4,550.91a46.09,46.09,0,0,1-6.92,13.59c-.56.76-1.15,1.54-1.78,2.31-6.8,8.36-18.45,17-37.59,17.5l-30.4.84h-.17l-7.11.2,3.82-4.29L623.09,524,625,521.8l.07-.07-.05-.15a.78.78,0,0,1-.08-.18,1.1,1.1,0,0,1-.11-.24s-.05-.13-.09-.21-.09-.2-.13-.32a3.66,3.66,0,0,1-.2-.48.19.19,0,0,1,0-.1c-.08-.17-.16-.37-.25-.57-.26-.62-.56-1.35-.94-2.2-.13-.35-.29-.71-.46-1.1s-.31-.76-.5-1.18-.36-.85-.55-1.3l-7-16.48c-.27-.65-.56-1.32-.86-2l-2.68-6.34c-.32-.77-.65-1.54-1-2.33h.31a15.82,15.82,0,0,1,6.46,1.24c5,2,12.08,7,18.34,19.61Z"/><path class="cls-5" d="M671.5,552.35a2.75,2.75,0,0,1-.2.25c-.24.28-.69.82-1.32,1.52-4.38,4.86-17.27,17.82-26.28,12.69l-.26-.15a45.92,45.92,0,0,0,6.92-13.59l-17.11-43.54c-4.82-9.71-10.11-14.93-14.59-17.7l0,0a20.27,20.27,0,0,0-7.48-2.94,12.55,12.55,0,0,0-2.72-.2C599.41,466.9,592,449,592,449l4.9-2.43,2.12-1h0l1.08-.53,8.2-4.1,55.86,98.55,4.33,7.61.56,1Z"/><path class="cls-5" d="M643.44,566.66c-2-1.24-3.87-3.43-5.35-6.9-3-7-8.66-20.56-15-35.88l-.06-.15a1.22,1.22,0,0,0-.07-.17,1.73,1.73,0,0,0-.1-.24l-.09-.22c-.05-.09-.09-.21-.14-.32s-.13-.3-.2-.48l-13.95-33.62c2.1-.13,14.54.14,24.81,20.85l17.11,43.53A45.9,45.9,0,0,1,643.44,566.66Z"/><path class="cls-5" d="M632.35,786.94l-9.21,2.81-97.88,29.91s21.07-15.32,23.6-30.44-41.45-70.51-44.26-89.32c-2.54-17,22.14-24.64,26.79-25.91l.74-.19q1.29,6.23,2.82,12c.74,2.79,1.52,5.49,2.34,8.12,10.15,32.68,26.21,53.94,42.27,67.74a119.33,119.33,0,0,0,11.83,9C613.31,785.1,632.35,786.94,632.35,786.94Z"/><path class="cls-4" d="M466,400.61c-18.36,155.29,1.79,160.9,59.32,159.82S591,502.66,591,502.66l-.71-1.85a10.55,10.55,0,1,1-7.2-18.52h0l-15.48-40-3.59,1.63a5.76,5.76,0,0,1-7.62-2.88,5.62,5.62,0,0,1-.51-2.22,5.72,5.72,0,0,1,3.38-5.39l4.19-1.9L547,388.86l-3.58,1.85a5.76,5.76,0,0,1-5.31-10.23l4.7-2.44L528,339.71l-.53.33a5.76,5.76,0,0,1-7.93-1.84,5.87,5.87,0,0,1-.88-2.88,5.8,5.8,0,0,1,2.71-5.05l2.41-1.5-15.43-39.9-.24.15a5.78,5.78,0,0,1-7.89-2.07,6,6,0,0,1-.78-2.74,5.77,5.77,0,0,1,2.86-5.14l1.84-1.07L490,241.27l-1.6.69a5.75,5.75,0,0,1-7.56-3,5.55,5.55,0,0,1-.46-2.12,5.73,5.73,0,0,1,3.47-5.45l2-.86L474,200a5.73,5.73,0,0,1-5.94-1.89,5.64,5.64,0,0,1-1.32-3.5,5.7,5.7,0,0,1,2.09-4.6l1-.81-15-38.87L444.43,180.5C434.09,210.73,466,400.61,466,400.61Z"/><path class="cls-4" d="M572.84,493.13a10.55,10.55,0,0,0,17.47,7.68l-7.16-18.52h0A10.57,10.57,0,0,0,572.84,493.13Z"/><path class="cls-4" d="M556,438.8a5.62,5.62,0,0,0,.51,2.22,5.76,5.76,0,0,0,7.62,2.88l3.59-1.63-4.15-10.76-4.19,1.9A5.72,5.72,0,0,0,556,438.8Z"/><path class="cls-4" d="M535,385.75a5.75,5.75,0,0,0,8.41,5l3.58-1.85L542.84,378l-4.7,2.44A5.76,5.76,0,0,0,535,385.75Z"/><path class="cls-4" d="M518.68,335.32a5.87,5.87,0,0,0,.88,2.88,5.76,5.76,0,0,0,7.93,1.84l.53-.33-4.22-10.94-2.41,1.5A5.8,5.8,0,0,0,518.68,335.32Z"/><path class="cls-4" d="M499.46,284.21a6,6,0,0,0,.78,2.74,5.78,5.78,0,0,0,7.89,2.07l.24-.15L504.16,278l-1.84,1.07A5.77,5.77,0,0,0,499.46,284.21Z"/><path class="cls-4" d="M480.35,236.84a5.55,5.55,0,0,0,.46,2.12,5.75,5.75,0,0,0,7.56,3l1.6-.69-4.15-10.74-2,.86A5.73,5.73,0,0,0,480.35,236.84Z"/><path class="cls-4" d="M466.74,194.56a5.64,5.64,0,0,0,1.32,3.5A5.73,5.73,0,0,0,474,200l-4.18-10.8-1,.81A5.7,5.7,0,0,0,466.74,194.56Z"/><path class="cls-6" d="M324.17,307.67,355.49,22.26l1.08-1.32c.54-.65,13.29-16,33.17-17.49,12-.9,23.81,3.37,35.15,12.7v0c.94.76,1.87,1.58,2.81,2.42L430,20.66l-.45,3c0,.27-.42,2.89-1.07,7.51-6.12,43-36,259.58-33.11,363.72.27,9.84.83,18.67,1.74,26.26,10.33,87.17,17.61,362.16,19.1,422.35v0c.18,7.19.27,11.31.29,11.67l.06,2.8h0l0,.78-3.2,1.66c-2,1-49.92,25.45-72.7.58l-1.45-1.58L324.12,308.07Zm26.46,547c13.47,11.95,41.08,3.13,54.26-2.9-.88-36.92-8.38-337.74-19.23-429.26-1-8-1.54-17.29-1.82-27.58-3-110.51,29.35-338.75,33.85-369.82-9-7.42-18-10.86-27-10.22-8.73.63-15.85,5-20.28,8.61-.57.47-1.11.92-1.59,1.35-1,.85-1.74,1.61-2.3,2.19l-30.9,281.47Z"/><path class="cls-7" d="M366.55,27.07c.56-.58,1.34-1.34,2.3-2.19.48-.43,1-.88,1.59-1.35,4.43-3.57,11.55-8,20.28-8.61,8.94-.64,18,2.8,27,10.22C413.19,56.21,380.8,284.45,383.84,395c.28,10.29.87,19.59,1.82,27.58C396.51,514.06,404,814.88,404.89,851.8c-13.18,6-40.79,14.85-54.26,2.9l-15-546.16Zm1.77,390.44v.17a2.62,2.62,0,0,0,5.24,0l1.28-39.55a2.62,2.62,0,0,0-5.24-.17ZM370.27,316l-1.2,42.51v.14a2.62,2.62,0,0,0,5.24,0l1.18-42.5a2.61,2.61,0,1,0-5.22-.15Zm.37-15.16a2.29,2.29,0,0,0,0,.37,2.61,2.61,0,0,0,5.21.2L380.27,261a2.61,2.61,0,1,0-5.19-.56ZM406.31,29.51a2.62,2.62,0,0,0-3.08,2l-7.79,38.55a2.39,2.39,0,0,0-.05.59,2.62,2.62,0,0,0,5.18.45l7.8-38.55A2.63,2.63,0,0,0,406.31,29.51Zm-11.86,97.76,6.62-38.52a2.62,2.62,0,0,0-5.16-.89l-6.62,38.52a4.67,4.67,0,0,0,0,.52,2.63,2.63,0,0,0,2.18,2.51A2.59,2.59,0,0,0,394.45,127.27ZM389.14,142a2.62,2.62,0,0,0-2.92,2.29l-4.78,40.84a2.29,2.29,0,0,0,0,.37,2.62,2.62,0,0,0,5.22.23l4.78-40.83A2.62,2.62,0,0,0,389.14,142Zm-2,62.11a2.62,2.62,0,0,0-5.18-.82l-6.55,40.88a3.75,3.75,0,0,0,0,.48,2.62,2.62,0,0,0,5.21.34ZM358.45,822.75a15.34,15.34,0,0,0,15.76,14.92l1.15,0a15.35,15.35,0,0,0,14.92-15.76L385.42,644.8a15.33,15.33,0,0,0-15.75-14.91l-1.16,0a15.34,15.34,0,0,0-14.91,15.75Z"/><path class="cls-6" d="M474.58,101.7a5.72,5.72,0,0,1-3,4.28,5.75,5.75,0,0,1-8.41-5.87c5.2-37.55-21.46-60.15-34.72-68.9A71.81,71.81,0,0,0,421.34,27a5.76,5.76,0,0,1,3.54-10.86h0a5.07,5.07,0,0,1,1.38.45,99.88,99.88,0,0,1,27.08,20.52C470.56,55.48,477.9,77.79,474.58,101.7Z"/><path class="cls-6" d="M632,523.24,629,526c-.06,0-1.37,1.24-3.63,3.41a473.93,473.93,0,0,0-45.44,50.21c-1.44,1.87-2.84,3.71-4.19,5.54l-.08.11q-3.63,4.88-6.84,9.6c-22,32.08-30.84,59-25.73,78.47,1,3.88,2.07,7.61,3.14,11.22l.89,2.93c11.47,37.24,25.51,60,31.94,67.29a5.76,5.76,0,0,1,.53,6.89,5.53,5.53,0,0,1-1,1.23,5.75,5.75,0,0,1-8.11-.48c-.83-.94-18.76-21.54-33.84-70,0,0,0-.09,0-.14l-1.33-4.41q-1.66-5.6-3.26-11.65c-.2-.75-.38-1.51-.53-2.26a56.08,56.08,0,0,1-1.22-10.32c-1.54-55.8,71.82-128.12,88-143.42-4.73-11.16-18.47-43.56-35.87-84.62q-2.21-5.2-4.5-10.6c-5.77-13.61-11.87-28-18.11-42.75v0q-2.25-5.28-4.52-10.63c-5.42-12.79-10.92-25.76-16.38-38.67q-2.28-5.38-4.54-10.74C528.7,309,523.18,296,517.83,283.35q-2.3-5.4-4.52-10.69c-5.2-12.28-10.19-24.06-14.83-35.05-1.54-3.63-3-7.15-4.48-10.6-5-11.85-9.56-22.59-13.44-31.81-1.69-4-3.26-7.69-4.68-11.08-5.6-13.29-9.12-21.7-9.73-23.27-1.7-4.35-2.39-10.57-2.55-16.86a178.25,178.25,0,0,1,1.16-23.81,5.76,5.76,0,0,1,11.44,1.36c-1.18,9.9-2,28.2.68,35.12.54,1.39,3.51,8.48,8.27,19.8q2.1,5,4.67,11.09l14.75,34.9q2.18,5.16,4.48,10.6c4.48,10.61,9.28,21.93,14.28,33.75,1.48,3.52,3,7.09,4.52,10.7,5.3,12.5,10.77,25.44,16.33,38.54,1.5,3.57,3,7.15,4.54,10.74,5.59,13.19,11.2,26.46,16.75,39.53q2.26,5.35,4.51,10.65c6.34,15,12.52,29.54,18.35,43.33q2.29,5.38,4.5,10.6c.22.53.45,1.06.68,1.59q2.82,6.66,5.5,13h0l1.23,2.89c6.37,15,12,28.4,16.7,39.4.6,1.39,1.16,2.73,1.7,4l0,0,11.73,27.65Z"/><path class="cls-6" d="M643.74,801.62a18.06,18.06,0,0,1-7.17,12.76c-8.6,6.82-40.49,18.37-60.86,25.34-8.5,2.9-15,5-17,5.64a5.77,5.77,0,0,1-7.25-3.71,6,6,0,0,1-.28-1.6,5.76,5.76,0,0,1,4-5.64c25.45-8.21,66.2-22.71,74.2-29.06,2.34-1.86,2.75-3.54,2.84-4.65.28-3.22-1.87-6.89-3.35-8.89l-5.76-2.06-29-10.37a5.76,5.76,0,0,1-3.48-7.36,5.64,5.64,0,0,1,.73-1.4,5.76,5.76,0,0,1,6.63-2.08L635.65,782l1,1.07C637.43,784,644.52,792.07,643.74,801.62Z"/><path class="cls-6" d="M543.94,848a4.24,4.24,0,0,1-1.08.69c-.8.36-19.73,8.9-31.51,9.21a4.53,4.53,0,0,1-2.58-.7,4.7,4.7,0,0,1,2.32-8.72c8.2-.22,22.9-6.12,27.88-8.37a4.7,4.7,0,0,1,5,7.89Z"/><path class="cls-6" d="M502.21,853.65a5.76,5.76,0,0,0-6.55-4.83c-15.11,2.27-57.56,6.45-74-1.11l-5.45-4.15h0l-.69-.52a5.75,5.75,0,0,0-8.07,1.08,5.69,5.69,0,0,0-1.19,3.65,5.77,5.77,0,0,0,2.27,4.41l7.07,5.41.52.25a4.28,4.28,0,0,0,.44.2v0c22.87,10.74,78.45,2.51,80.82,2.16l1.19-.3A5.8,5.8,0,0,0,502.21,853.65Z"/><path class="cls-6" d="M466.74,194.56a5.64,5.64,0,0,0,1.32,3.5,5.79,5.79,0,0,0,8.11.78l4.39-3.64,9.26-7.66,10.69-8.83a5.76,5.76,0,1,0-7.34-8.88l-8,6.62-9.28,7.67-6.06,5-1,.81A5.7,5.7,0,0,0,466.74,194.56Z"/><path class="cls-7" d="M474,200l11.82,30.58L494,227c-5-11.86-9.56-22.6-13.44-31.81l-4.39,3.64A5.68,5.68,0,0,1,474,200Z"/><path class="cls-6" d="M480.35,236.84a5.55,5.55,0,0,0,.46,2.12,5.75,5.75,0,0,0,7.56,3l1.6-.69,8.51-3.67,10.57-4.55,14.56-6.28a5.75,5.75,0,0,0-4.55-10.57l-14.49,6.25L494,227l-8.18,3.52-2,.86A5.73,5.73,0,0,0,480.35,236.84Z"/><path class="cls-7" d="M490,241.27,504.16,278l9.15-5.34c-5.2-12.28-10.19-24.06-14.83-35.06Z"/><path class="cls-6" d="M499.46,284.21a6,6,0,0,0,.78,2.74,5.78,5.78,0,0,0,7.89,2.07l.24-.15,9.47-5.52,10-5.85,12.55-7.33a5.76,5.76,0,0,0-5.8-9.95l-11.26,6.58-10,5.86L504.16,278l-1.84,1.07A5.77,5.77,0,0,0,499.46,284.21Z"/><path class="cls-7" d="M508.37,288.87l15.43,39.9,10.49-6.55C528.7,309,523.18,296,517.84,283.35Z"/><path class="cls-6" d="M518.68,335.32a5.87,5.87,0,0,0,.88,2.88,5.76,5.76,0,0,0,7.93,1.84l.53-.33L538.83,333l9.89-6.18,12.62-7.88a5.76,5.76,0,1,0-6.1-9.77L544.18,316l-9.89,6.18-10.49,6.55-2.41,1.5A5.8,5.8,0,0,0,518.68,335.32Z"/><path class="cls-7" d="M528,339.71,542.84,378l12.38-6.42L538.83,333Z"/><path class="cls-6" d="M535,385.75a5.75,5.75,0,0,0,8.41,5l3.58-1.85,12.7-6.59h0L570,377l17.65-9.16a5.76,5.76,0,1,0-5.31-10.23l-16.86,8.74-10.25,5.31L542.84,378l-4.7,2.44A5.76,5.76,0,0,0,535,385.75Z"/><path class="cls-7" d="M547,388.86l16.49,42.65L577.85,425c-5.77-13.61-11.87-28-18.12-42.76Z"/><path class="cls-6" d="M556,438.8a5.62,5.62,0,0,0,.51,2.22,5.76,5.76,0,0,0,7.62,2.88l3.59-1.63,14.67-6.64,6-2.73h0l.09,0,.9-.42.11-.05h.09l3.22-1.47L604,425.84a5.76,5.76,0,1,0-4.74-10.49l-10.91,4.94L577.85,425l-14.33,6.48-4.19,1.9A5.72,5.72,0,0,0,556,438.8Z"/><path class="cls-6" d="M585.61,438a5.53,5.53,0,0,1,.29-1.95,5.76,5.76,0,0,1,7.25-3.68c1,.32,23.84,7.95,35.28,27.27,10.43,17.64,36.94,69.92,38.06,72.13A5.76,5.76,0,0,1,656.22,537c-.27-.54-27.46-54.16-37.7-71.47-9.19-15.52-28.76-22.13-28.95-22.19A5.78,5.78,0,0,1,585.61,438Z"/><path class="cls-6" d="M690.75,568v.23a13.42,13.42,0,0,1-4.11,10c-8.89,8.67-33,19.77-35.68,21a5.75,5.75,0,0,1-7.63-2.86,5.67,5.67,0,0,1-.52-2.22,5.76,5.76,0,0,1,3.38-5.4c6.87-3.14,26.09-12.62,32.41-18.78a1.89,1.89,0,0,0,.63-1.58v-.05c-.07-2.46-2.16-6-4.59-9.06a40.5,40.5,0,0,0-4.24-4.68c-.15-.13-.28-.27-.42-.41a5.81,5.81,0,0,1-1-6l0-.06a5.74,5.74,0,0,1,9.2-1.92C680.29,548,690.46,557.93,690.75,568Z"/><path class="cls-6" d="M638.45,604.89a5.78,5.78,0,0,1-3.1,5.06c-17.29,9-35.27,8-52-2.7a75.75,75.75,0,0,1-14.58-12.39,62.91,62.91,0,0,1-5.11-6.26,5.75,5.75,0,0,1,8.57-7.54,5.09,5.09,0,0,1,.92,1c.17.25,1,1.4,2.37,3.06l.09.11c6.92,8.22,27.55,28.39,54.41,14.46a5.75,5.75,0,0,1,7.76,2.46A5.85,5.85,0,0,1,638.45,604.89Z"/><path class="cls-4" d="M408.36,32.6l-7.79,38.55a2.62,2.62,0,0,1-5.18-.45,3,3,0,0,1,0-.59l7.8-38.55a2.62,2.62,0,0,1,5.13,1Z"/><path class="cls-4" d="M401.07,88.76l-6.62,38.52a2.61,2.61,0,0,1-5.19-.38,4.67,4.67,0,0,1,0-.52l6.62-38.52a2.62,2.62,0,0,1,5.16.9Z"/><path class="cls-4" d="M391.42,144.91l-4.77,40.83a2.62,2.62,0,0,1-5.22-.23,2.29,2.29,0,0,1,0-.37l4.78-40.83a2.62,2.62,0,1,1,5.2.6Z"/><path class="cls-4" d="M387.13,204.12,380.58,245a2.62,2.62,0,0,1-5.2-.34,3.87,3.87,0,0,1,0-.48L382,203.3a2.62,2.62,0,0,1,5.17.82Z"/><path class="cls-4" d="M380.27,261l-4.43,40.44a2.62,2.62,0,0,1-5.22-.2,1.43,1.43,0,0,1,0-.36l4.43-40.44a2.62,2.62,0,0,1,5.2.56Z"/><path class="cls-4" d="M375.49,316.17l-1.18,42.5a2.62,2.62,0,0,1-5.24,0v-.14L370.26,316a2.62,2.62,0,1,1,5.23.15Z"/><path class="cls-4" d="M374.84,378.13l-1.28,39.55a2.62,2.62,0,0,1-5.24,0v-.17L369.6,378a2.62,2.62,0,0,1,5.24.17Z"/><path class="cls-4" d="M353.6,645.67l4.85,177.08a15.34,15.34,0,0,0,15.76,14.92l1.15,0a15.35,15.35,0,0,0,14.92-15.76L385.42,644.8a15.33,15.33,0,0,0-15.75-14.91l-1.16,0A15.34,15.34,0,0,0,353.6,645.67Z"/><path class="cls-6" d="M572.84,493.13a10.56,10.56,0,1,0,10.31-10.84h0A10.57,10.57,0,0,0,572.84,493.13Z"/><path class="cls-6" d="M534.93,686.38a5.76,5.76,0,0,1,11.27-1.83l1.34,4.41a5.76,5.76,0,1,1-11,3.35l-1.34-4.41A5.43,5.43,0,0,1,534.93,686.38Z"/><path class="cls-7" d="M679.23,568.27v.05a1.89,1.89,0,0,1-.63,1.58c-6.32,6.16-25.54,15.64-32.41,18.78a5.76,5.76,0,0,0-3.38,5.4,5.67,5.67,0,0,0,.52,2.22,5.75,5.75,0,0,0,7.63,2.86l-12.51,5.73a5.85,5.85,0,0,0-.65-2.71,5.75,5.75,0,0,0-7.76-2.46c-26.86,13.93-47.49-6.24-54.41-14.46l.08-.11,30.4-.84c19.14-.52,30.79-9.14,37.59-17.5,9,5.13,21.9-7.83,26.28-12.69.14.14.27.28.42.41a40.5,40.5,0,0,1,4.24,4.68Z"/><line class="cls-2" x1="638.45" y1="604.89" x2="626.37" y2="610.41"/><polyline class="cls-2" points="650.37 511.21 664.51 539.17 668.48 547 669.01 548.07 671.3 552.6 674.64 559.21"/><path class="cls-7" d="M428.47,31.21c13.25,8.75,39.92,31.35,34.71,68.89a5.75,5.75,0,0,0,8.41,5.88l3.33,11.23a5.76,5.76,0,0,0-10.16,3A180,180,0,0,0,463.6,144c.17,6.29.86,12.51,2.55,16.86.61,1.57,4.13,10,9.73,23.27l-6.06,5-15-38.87L444.43,180.5C434.09,210.73,466,400.61,466,400.61c-18.36,155.29,1.79,160.9,59.32,159.82S591,502.66,591,502.66l-.71-1.85a10.55,10.55,0,0,0-7.16-18.52l-15.48-40,14.67-6.64c17.4,41.06,31.15,73.46,35.88,84.62-16.23,15.3-89.59,87.62-88.05,143.41A57,57,0,0,0,531.39,674c-4.64,1.27-29.33,8.88-26.79,25.91,2.81,18.8,46.8,74.21,44.26,89.32-.08.47-.18.94-.29,1.42s-.24.91-.38,1.37v0c-.11.36-.24.72-.37,1.08l-.12.33c-.09.24-.18.47-.28.71a32.52,32.52,0,0,1-2,4c-.12.22-.26.45-.39.67s-.27.44-.41.66-.27.45-.42.67a54,54,0,0,1-3.42,4.69c-.27.34-.54.66-.82,1-.84,1-1.7,2-2.56,2.88l-.51.55c-1.57,1.64-3.12,3.15-4.56,4.47l-.45.4c-1.56,1.42-3,2.6-4.08,3.51l-.32.26c-.89.72-1.56,1.23-1.91,1.49l-.17.13-.12.09,97.85-29.9,5.76,2.06c1.48,2,3.64,5.67,3.35,8.89-.09,1.11-.49,2.79-2.84,4.65-8,6.35-48.75,20.85-74.19,29.06a5.75,5.75,0,0,0-4,5.63,6.05,6.05,0,0,0,.28,1.61,5.68,5.68,0,0,0,3.26,3.54L544,848a4.71,4.71,0,0,0-5-7.9c-5,2.26-19.69,8.16-27.88,8.38a4.7,4.7,0,0,0-2.33,8.72l-10.21,2.68a5.76,5.76,0,0,0-2.9-11.09c-15.11,2.27-57.56,6.45-74-1.11l-5.46-4.15v0c-1.49-60.19-8.77-335.18-19.1-422.35-.91-7.59-1.47-16.42-1.74-26.26C392.51,290.79,422.35,74.24,428.47,31.21Zm14,768.59c-10.38,19.45,25,28.8,25,28.8s41.06,2.71,40.1-21.73-40.24-79.71-40.24-79.71-5.14-58.55-12.32-62.48-10.74-15-20.08-6.23l-9.35,8.81s4.44,43.52,21.21,74.32C446.76,741.58,452.84,780.34,442.46,799.8Z"/><path class="cls-4" d="M442.46,799.8c-10.38,19.45,25,28.8,25,28.8s41.06,2.71,40.1-21.73-40.24-79.71-40.24-79.71-5.14-58.55-12.32-62.48-10.74-15-20.08-6.23l-9.35,8.81s4.44,43.52,21.21,74.32C446.76,741.58,452.84,780.34,442.46,799.8Z"/><line class="cls-2" x1="471.59" y1="105.98" x2="466.74" y2="89.6"/><line class="cls-2" x1="476.2" y1="121.54" x2="474.92" y2="117.21"/></svg>
