<svg xmlns="http://www.w3.org/2000/svg" viewBox="0 0 920 69"><defs><style>.cls-1{opacity:0.6;}</style></defs><title>storbrick</title><g id="Layer_2" data-name="Layer 2"><path d="M233,5.12c-7.73,0-15.56.51-23.27-.28-3.5-.35-6.92-.35-10.43-.44-3-.08-5.89-1-8.89-1.19C173.5,2,156.55,3.88,139.68,4c-15.79.09-31.58-.21-47.36-.61-8.52-.22-17-.13-25.55-.14-7.71,0-15.46-.38-23.15.39-3.34.34-6.75.47-10.07,1-2,.35-5.35.65-7,2.07-1.07.93-.81,1.71-2.61,2.36s-4.58.7-5.75,2.43c-1.32,1.94.23,4.31-1,6.52-.6,1.09-1.44,1.29-1.23,2.76.39,2.71,2.76,3,.52,6.24-1.15,1.68-1.77,1.53-1.89,3.81-.06,1.21-.53,2.82-.15,4,.84,2.64,4.54,2.3,6.25,3.87,5.49,5.07-7.75,8.42-8.1,13.64-.21,3.08,2.53,5.73,5.11,6.92C22.1,61.3,25,62.62,30.06,63c15.79,1,31.56-.87,47.34-.47,17.17.44,34.37.3,51.54.25,16.95,0,33.83,1.5,50.8,1.51,16.4,0,33-.83,49.39.1,33.7,1.9,67.45,2.67,101.21,2,16.65-.3,33.25-1.94,49.89-2.63,17.16-.71,34.29.26,51.45.15,34.16-.22,68.25-.68,102.41.3,16.6.48,33.25,0,49.86,0,17,0,33.95-1.25,50.93-1.15,16.7.1,33.38-1,50.08-.64,16.87.4,33.72,1.49,50.56,2.37,34.82,1.8,69.93.48,104.79.56,8.37,0,16.58-.59,24.93-.94a84.65,84.65,0,0,0,18.24-2.29c2.32-.6,4.94-.85,7-2.16,2.25-1.45,5-2.52,7.18-4.12,4-3,3.88-8.6,4-13,.11-2.75,2-5.14,1.52-7.89-.48-2.52-2.75-4.61-4.48-6.32-2-2-3.09-4.32-1.6-7,.52-.94.6-.05,1.16-1.29s.67-4.82.2-5.73c-1.31-2.54-2.71-.48-3.4-5-.09-.63.3-1,0-1.73-1.21-2.86-7.35-2.64-9.69-2.76-16.94-.86-34-.27-50.91-.44-17.24-.17-34.45-1.12-51.69-1.12-17,0-34,.47-51,1.19-17.38.73-34.57.61-52,.16-17.57-.46-35.21-.39-52.78-.08-8.17.14-16.33.76-24.5.56-8.37-.21-16.72-.7-25.1-.73-16.82-.06-33.68.35-50.49.87s-33.55-.23-50.34,0c-34.05.57-67.93-5.34-102-2.44-16,1.37-32,.59-48,.47s-31.8,1.13-47.72,1.12c-15.31,0-30.6-.11-45.89,0a.38.38,0,0,0,0,.75c15-.1,30,0,45.05,0,15.43,0,30.79-1.06,46.2-1.12s30.88,1,46.33-.13a392.29,392.29,0,0,1,48.25-.56c32.55,1.53,65.15,3.86,97.75,2.94,16.34-.46,32.69-.88,49-1.13,16-.23,32.08,1.16,48.08.51,16.56-.67,33.16-.58,49.74-.54s33.4,1,50.11.77C729.68,6,745.83,4.74,762,4.42c16.76-.34,33.54-.14,50.29.47,16.35.59,32.69.56,49.06.59,8,0,16,0,24,.4,1.94.1,8.93-.09,9.09,3.14.06,1.13-1.08,1.71-.54,3s1.1.82,1.87,1.57c1.33,1.3,2.3,2.33,1.87,4.42a8.16,8.16,0,0,1-1.47,3.36c1.84-2.22-.93.57-1,.67-.33.56-.67.68-.82,1.34a3.84,3.84,0,0,0,.9,3c3,4.45,8.76,6,6.26,12.74-1,2.74-.37,5.48-.71,8.35a14,14,0,0,1-1.47,4.46,8.59,8.59,0,0,1-4.74,4.69c-2.37,1.21-5,3.06-7.47,3.89-2.75.92-5.82,1.55-8.66,2.2-7.31,1.68-15.52,1.2-23,1.73-8.27.59-16.65.22-24.93.22h-51c-16.33,0-32.66.22-49-.84s-32.74-1.92-49.1-2.14C649.3,61.2,617,63.5,584.78,63.48c-15.81,0-31.64.35-47.44.06-16-.3-32-.86-48.07-.82-16.89,0-33.79-.19-50.68.31-16.62.48-33.23-.53-49.85-.28-15.92.24-31.7,1.78-47.58,2.55-16.28.78-32.65.57-48.94.48-16.47-.09-33-.35-49.49-1.15-7.64-.37-15.14-1.18-22.8-1.15-8.14,0-16.28,0-24.43,0-16,0-32,.41-48-.91C131,61.21,114.24,62,97.67,62c-8.19,0-16.36-.21-24.55-.36-7.51-.15-15,.69-22.48.78s-15.28.42-22.75-.38c-3.46-.37-9.12-2.69-11.76-5.19-8.2-7.76,5.21-9,7.53-14.66,1.85-4.48-7.69-4.87-8.44-8.88-.46-2.42,1.55-4.54,2.61-6.26.61-1,1-1.25.87-2.47-.43-3.32-2.05-1.66-.63-6.26.11-.36.58-.52.66-1,.14-.92-.41-2.37-.16-3.17.92-2.92,3.69-3.73,6.14-4.44a6.59,6.59,0,0,0,2.13-.84c.09-.06.11-.17.17-.23s0-.49.08-.59a7.32,7.32,0,0,1,2.18-1.57c3.21-1.36,7.08-1.39,10.5-1.69,4.13-.37,8.21-.81,12.36-.84,15.93-.14,31.87.11,47.8.4,15.23.27,30.47.63,45.71.35,7.83-.15,15.63-.61,23.45-.92s16.43-.76,24.19.62c5.66,1,11.36.75,17.09,1.31,7.47.72,15.08.22,22.58.2a.38.38,0,0,0,0-.75Z"/><g class="cls-1"><path d="M615.21,5.92c2.36.19,4.74.32,7.08.73a4.51,4.51,0,0,0,.94.2,1.36,1.36,0,0,1,.28.11c.1-.34,0-.45-.14-.33-.22-.09-1.12.25-1.39.29-4,.62-8,.81-12,1.2A59.08,59.08,0,0,0,599.63,9.6a3.51,3.51,0,0,0-1.35.57c-.38.34-.28.56-.31,1-.06,1-.91.9-1.63,1.4s-.63,1.1-.63,2.06h.75c-.06-.64.2-1.48-.15-2-.25-.4-1.71-.94-1.63-1.37s2.39-.84,2.73-.95c.88-.26,1.74-.54,2.64-.72.62-.13,6.55-.64,5.84-2-.22-.43-1-.49-1.4-.56-1-.18-2.1-.26-3.14-.34-3.06-.23-6.12-.33-9.18-.48-1.56-.08-3.11-.16-4.66-.29-1.13-.09-2.9,0-3.66-1-.3-.38-.83.16-.53.54,1.17,1.49,4.35,1.24,6,1.34,3,.19,6,.3,9,.46,1.31.07,2.62.15,3.92.26.87.08,1.78.34,2.64.37.08,0,.21.12.28.1s.1-.26,0-.28a8,8,0,0,0-1.6.47c-1.75.37-3.55.57-5.26,1.09-1.06.32-2.14.6-3.18,1-.43.16-1.23.38-1.39.89s.28.82.61,1.06,1,.44,1.18.76a8,8,0,0,1,.12,1.74.38.38,0,0,0,.75,0c0-.37-.11-1,.12-1.3s.92-.5,1.28-.68.81-.39.94-.82-.29-.81.15-1.2a3.83,3.83,0,0,1,1.33-.42A70.26,70.26,0,0,1,610,8.87c3.43-.34,6.87-.59,10.29-1,.53-.06,4.3-.14,3.87-1.31-.26-.71-2-.71-2.54-.79-2.12-.29-4.26-.45-6.39-.62-.48,0-.48.72,0,.75Z"/></g><g class="cls-1"><path d="M865.2,22c0,.92,0,1.84,0,2.76,0,.41.15.81.16,1.21,0,1.15-2.09,1.47-3,1.78a3.59,3.59,0,0,0-1.85,1c-.38.55-.31,1.33-.59,1.93-.47,1-1.67,1.49-2.63,1.91a21.21,21.21,0,0,1-3.65,1.24c-1.46.34-2.94.53-4.41.83-1,.22-2,.68-3,.85-.42.07-.31.74.1.74a81.17,81.17,0,0,0,9.49-.17c.39,0,.54-.62.1-.74-2.73-.73-5.78-.45-8.58-.63l.19.7a8.17,8.17,0,0,1,3.13-.67c1.68-.2,3.37-.32,5.06-.44a69.65,69.65,0,0,0,9.46-.92.37.37,0,0,0,0-.72c-3.52-1-7.4-.94-11-1.12-1.52-.07-3-.11-4.57-.18-.71,0-1.43-.07-2.13-.14-.29,0-.59-.06-.87-.11a.82.82,0,0,0-.26-.06c-.33,0,0-.27-.15.18l-.36.27c1.68-.16,3.36-.36,5-.65a.38.38,0,0,0,0-.72l-3-.63v.72A25.55,25.55,0,0,0,852,28.75c.45-.19,1.64-.45,1.48-1.18s-1.15-.76-1.62-.87a47.39,47.39,0,0,0-5-.72c-.48-.05-.47.7,0,.75,1.29.14,2.59.29,3.87.51.51.09,1.64.14,2,.54-.14-.14,0-.14-.22-.05s-.37.15-.56.22l-1.27.55a20.48,20.48,0,0,1-3.06,1,.38.38,0,0,0,0,.72c1,.22,2,.43,3,.63v-.72c-1.61.27-3.22.47-4.83.62a.39.39,0,0,0-.36.28c-.36,1.36,6.06,1.15,6.76,1.18q3.39.12,6.76.36a30.29,30.29,0,0,1,6,.81v-.72a75.72,75.72,0,0,1-10,.94c-1.66.13-3.33.25-5,.47a7.56,7.56,0,0,0-2.86.69.38.38,0,0,0,.19.7c1.53.1,3.06.14,4.59.21a17.8,17.8,0,0,1,3.79.39l.1-.73a81.17,81.17,0,0,1-9.49.17l.1.73c1.14-.19,2.2-.68,3.34-.91,1.59-.31,3.21-.52,4.77-.94A22.56,22.56,0,0,0,858,33.06a5.13,5.13,0,0,0,2.5-1.89c.35-.62.25-1.58.69-2.11a3.48,3.48,0,0,1,1.5-.68c.57-.19,1.14-.37,1.7-.58.76-.29,1.69-.68,1.73-1.62,0-.43-.17-.85-.19-1.28,0-1,0-2,0-2.95a.38.38,0,0,0-.75,0Z"/></g><g class="cls-1"><path d="M604.25,44.46a2.64,2.64,0,0,0,.18-2.41,5.13,5.13,0,0,0-1.94-1.53l.19.33c-.21-2.35.82-4.59.76-6.93a.38.38,0,0,0-.75,0c.06,2.25-.92,4.41-.78,6.67,0,.51.21.59.63.84a6,6,0,0,1,.94.64c.63.58.43,1.31.12,2-.19.43.46.82.65.37Z"/></g><g class="cls-1"><path d="M695.06,27.78c-.22,1.55-.71,3-.91,4.61a6.68,6.68,0,0,0,.47,4A6.26,6.26,0,0,0,697,38.42a8.12,8.12,0,0,1,1.2.65,1.62,1.62,0,0,1,.35,1.65c-.08.47.64.68.72.2a2.31,2.31,0,0,0-.74-2.54c-.38-.26-.81-.42-1.21-.64a7.14,7.14,0,0,1-1.49-1.13,4.46,4.46,0,0,1-.94-3.68c.12-1.68.69-3.29.93-4.95.07-.48-.65-.68-.72-.2Z"/></g><g class="cls-1"><path d="M771.38,49l1.07,0a.38.38,0,0,0,0-.75,3.52,3.52,0,0,0-2.83.79.38.38,0,0,0,.07.59,3.49,3.49,0,0,0,1.5.25,8.74,8.74,0,0,0,1.91-.22c.9-.21,2.5-.72,2.53-1.87,0-.43-.68-.82-1-1a3,3,0,0,0-1.51-.27c-.48,0-.48.78,0,.75A2.27,2.27,0,0,1,775,48l-.11-.27c0,.06,0,0,0,.08a.14.14,0,0,1,0,.07h0a.57.57,0,0,1-.12.19,1.75,1.75,0,0,1-.46.35,5.15,5.15,0,0,1-1.44.51,7.2,7.2,0,0,1-1.6.18,4.06,4.06,0,0,1-.7,0l-.24,0-.14,0-.07,0s0,0,0,0l.08.59a2.85,2.85,0,0,1,2.3-.57V48.2l-1.07,0a.38.38,0,0,0,0,.75Z"/></g><g class="cls-1"><path d="M798.62,4.08c0,1.34,0,2.68-.07,4s-.18,2.56-.17,3.84a14.56,14.56,0,0,0,.12,1.75c.06.4.08,1.22.44,1.47s1.38.18,1.89.15a4.6,4.6,0,0,1,2.12.17l-.17-.63a2.74,2.74,0,0,1-3.17.42c-.19-.12-.42-.31-.41-.55a2.6,2.6,0,0,1,.54-1,9.64,9.64,0,0,1,1.66-1.78,24.64,24.64,0,0,0,3.44-3.17,7.4,7.4,0,0,0,1.44-4.45.38.38,0,0,0-.75,0A6.59,6.59,0,0,1,804,8.59a29.51,29.51,0,0,1-3.06,2.73,7.66,7.66,0,0,0-2.46,3.2c-.31,1,1,1.64,1.79,1.75a3.52,3.52,0,0,0,3.06-.88.38.38,0,0,0-.17-.63c-1.28-.51-2.62,0-3.92-.28l.26.26a15.06,15.06,0,0,1-.28-5.23c.11-1.82.17-3.61.17-5.43a.38.38,0,0,0-.76,0Z"/></g><g class="cls-1"><path d="M424.21,31c-.6.38-1.39,1-1.18,1.81.18.65.88,1,1.44,1.33a20.34,20.34,0,0,0,2.18.82,2.93,2.93,0,0,1,1.89,1.42c.25.48.37,1,.58,1.52a3.35,3.35,0,0,0,1.05,1.46c.38.3.91-.23.53-.53a4.9,4.9,0,0,1-1.31-2.39,3.46,3.46,0,0,0-1.94-2c-1.11-.45-2.52-.64-3.44-1.48-.17-.16-.3-.34-.25-.51.11-.37.52-.62.83-.81s0-.9-.38-.65Z"/></g><g class="cls-1"><path d="M469.88,25A6,6,0,0,0,468,29.91,12.15,12.15,0,0,0,469.82,35a.38.38,0,0,0,.65-.38A11.55,11.55,0,0,1,468.73,30a5.29,5.29,0,0,1,1.68-4.49.38.38,0,0,0-.53-.53Z"/></g><g class="cls-1"><path d="M525.38,55a2.36,2.36,0,0,0,2.38-1.79.41.41,0,0,0-.17-.43c-.33-.2-.31-.31,0-.56a4.41,4.41,0,0,1,1.21-.69,24.71,24.71,0,0,1,3.24-1.1,25,25,0,0,0,3.47-1.21,14.29,14.29,0,0,0,4-3c.34-.34-.19-.88-.53-.53A13.32,13.32,0,0,1,534.1,49c-1.14.43-2.32.72-3.49,1.09-.92.29-5.8,1.86-3.4,3.37L527,53a1.63,1.63,0,0,1-1.66,1.24c-.47,0-.48.79,0,.75Z"/></g><g class="cls-1"><path d="M516.85,34.28a14.26,14.26,0,0,0,3.93-1.23,5.33,5.33,0,0,0,2.89-2.49.34.34,0,0,0-.09-.36,10.47,10.47,0,0,0-2.85-1.44c-.92-.38-2.06-.85-2.36-1.89l-.17.42c1.65-1.26,3.76-1.74,5.65-2.54.44-.19.06-.84-.38-.65-1.89.81-4,1.28-5.65,2.55a.38.38,0,0,0-.18.42c.69,2.36,3.79,2.3,5.41,3.66l-.1-.37c-.45,1.07-1.79,1.71-2.78,2.15a13.87,13.87,0,0,1-3.52,1.05c-.47.07-.27.79.2.72Z"/></g><g class="cls-1"><path d="M346.34,19.24c0,1.53.18,3.06.05,4.59-.12,1.37-.72,2.6-.93,4a4.37,4.37,0,0,0,2.39,4.43c2.86,1.73,7.69,1.82,8,6,0,.48.79.49.75,0-.27-3.9-3.83-4.71-6.88-5.95-2.06-.84-4-2.29-3.42-4.79a29.75,29.75,0,0,0,.85-3.5,47.06,47.06,0,0,0,0-4.75.38.38,0,0,0-.75,0Z"/></g><g class="cls-1"><path d="M281.83,5.3c.54.89,1.18,1.71,1.69,2.61a12.7,12.7,0,0,1,1.08,3.16,26.38,26.38,0,0,0,1.95,4.5c1.2,2.55,2.57,6.7-.45,8.53a.37.37,0,0,0,.38.64c3-1.82,2.33-5.64,1.21-8.43-.68-1.69-1.75-3.2-2.24-5a21.52,21.52,0,0,0-1-3.26,33.66,33.66,0,0,0-2-3.17c-.25-.41-.9,0-.64.38Z"/></g><g class="cls-1"><path d="M305.28,48.22h-.56a.38.38,0,0,0,0,.75h9.62v-.75a21.18,21.18,0,0,0-4.42.38c-.6.13-1.18.34-1.78.47a4.17,4.17,0,0,1-2.16-.13l.09.69,1.13-.72c.41-.25,0-.9-.38-.64L305.7,49a.38.38,0,0,0,.08.69,6.48,6.48,0,0,0,3.87-.24,19,19,0,0,1,4.69-.46.38.38,0,0,0,0-.75h-9.62a.38.38,0,0,0,0,.75h.56a.38.38,0,0,0,0-.75Z"/></g><g class="cls-1"><path d="M230.09,37.73a5.45,5.45,0,0,0,3.12-.32c.74-.34,1.83-1.41,1.23-2.26-1.2-1.7-3.83-.38-5.47-.88l.23.55c.26-.49,1.2-.93,1.73-1.23,1-.59,2.11-1.13,3.15-1.71a18.43,18.43,0,0,0,2.81-1.81c.53-.43,1.18-1,1.11-1.79-.11-1.1-1.67-1.44-2.53-1.63-.47-.1-.67.62-.2.72a5.53,5.53,0,0,1,1.55.51c.23.14.42.33.43.48,0,.49-.73,1.08-1.16,1.39A53,53,0,0,1,230.42,33a4.67,4.67,0,0,0-1.87,1.43.38.38,0,0,0,.22.55,8.13,8.13,0,0,0,2.74.06c.82,0,2-.13,2.43.74l0-.29c-.39,1.55-2.28,1.69-3.61,1.51-.47-.07-.68.66-.2.72Z"/></g><g class="cls-1"><path d="M177.18,3.21a13.32,13.32,0,0,0,.85,5.6c.39.94.87,1.84,1.28,2.76a14,14,0,0,1,.91,3.77,4.65,4.65,0,0,0,.83,2.31,15.82,15.82,0,0,0,2.09,1.63,4.34,4.34,0,0,1,1.57,2.9,3.65,3.65,0,0,1-.48,2.88.41.41,0,0,0,0,.54c.37.43.81.69.5,1.31-.12.25-.52.74-.84.65-1.12-.32.58-1.68.88-2a.41.41,0,0,0,0-.54c-.41-.44-.68-.68-.64-1.3,0-.39.35-.69.36-1.06a2.11,2.11,0,0,0-.5-1.19c-.68-.87-1.82-1.05-2.64-1.73a1.6,1.6,0,0,1-.6-2,2.74,2.74,0,0,0,.12-1.38c-.45-1.1-2.9-1-3.78-1.19l.26.46c.52-2.11-2.28-1.84-2.24-3.8,0-1.18,1.2-2.12,1.9-3,.42-.51.85-.91.47-1.55-.56-.94-1.69-1-2.66-1-.46,0-1.23.14-1.62-.17-.76-.61,0-2.27.22-2.93.18-.45-.54-.64-.72-.2-.43,1-1.11,3.06.18,3.81,1,.56,2.19,0,3.21.32.24.07.67.23.74.51s-.7,1-.94,1.31a6,6,0,0,0-1.44,2.19,2.57,2.57,0,0,0,.46,2.25c.57.71,2,.88,1.72,2a.37.37,0,0,0,.26.46,21.69,21.69,0,0,1,2.56.42c1,.33.61.89.46,1.66a2.29,2.29,0,0,0,.94,2.29c.75.62,2.69,1,2.83,2.15.06.5-.34,1-.35,1.56,0,.72.43,1,.9,1.54v-.54c-.47.47-1.66,1.36-1.65,2.08a1.39,1.39,0,0,0,1.31,1.17,1.83,1.83,0,0,0,1.49-1c.53-1,0-1.46-.61-2.23v.54c1-1.13.9-3,.52-4.41A4.89,4.89,0,0,0,184,19.11c-.7-.74-1.7-1.12-2.36-1.87-.83-.95-.75-2.49-1-3.66a12.71,12.71,0,0,0-1.17-3.26,20.41,20.41,0,0,1-1.34-3.2,14.25,14.25,0,0,1-.28-3.91.38.38,0,0,0-.75,0Z"/></g><g class="cls-1"><path d="M105.9,46.38c1.41,0,2.81,0,4.22,0,.64,0,1.9-.18,2.45.28.38.31.39,1,.5,1.48a4.76,4.76,0,0,0,.86,2c1.89,2.34,5.78,1.48,8.37,1.46a.38.38,0,0,0,0-.75c-2.76,0-7.36,1.06-8.39-2.45-.27-.91-.25-2.13-1.28-2.53a7.31,7.31,0,0,0-2.51-.22c-1.41,0-2.81,0-4.22,0a.38.38,0,0,0,0,.75Z"/></g><g class="cls-1"><path d="M123.16,51.55a.38.38,0,0,0,0-.75.38.38,0,0,0,0,.75Z"/></g><g class="cls-1"><path d="M82.7,30.1,81.86,30l.27.46s.06-.19,0-.11a.61.61,0,0,1,.07-.14,1.35,1.35,0,0,1,.23-.28,5.38,5.38,0,0,1,.65-.53,5.46,5.46,0,0,0,1.42-1.25,1.5,1.5,0,0,0-.06-1.74,2.27,2.27,0,0,0-2-.76c-.83,0-1.65.18-2.47.17a.38.38,0,0,0,0,.75c.68,0,1.36-.13,2-.16a4.41,4.41,0,0,1,1,0,1.51,1.51,0,0,1,.43.11.76.76,0,0,1,.26.18A1.45,1.45,0,0,1,84,27a1.47,1.47,0,0,1,.06.27v.09c0-.08,0,0,0,0a.75.75,0,0,1,0,.16c0,.06,0-.08,0,0l0,.09a.21.21,0,0,0,0,.06s-.09.12,0,.06a5.92,5.92,0,0,1-1.25,1,2.71,2.71,0,0,0-1.21,1.42.39.39,0,0,0,.26.47l.84.15a.4.4,0,0,0,.46-.27.38.38,0,0,0-.26-.46Z"/></g><g class="cls-1"><path d="M80.87,24.91H80a.39.39,0,0,0-.27.11.44.44,0,0,0-.11.27.38.38,0,0,0,.38.37h.86a.35.35,0,0,0,.26-.11.33.33,0,0,0,.11-.26.37.37,0,0,0-.37-.38Z"/></g><g class="cls-1"><path d="M110.15,3.68a16.81,16.81,0,0,1-3,2.27,7.33,7.33,0,0,0-2.12,1.75.38.38,0,0,0,.22.55c1.1.24,10-.44,9.58,1.21l.26-.26a39.07,39.07,0,0,1-6.34,2,.37.37,0,0,0,.1.73c1.73-.09,3.45-.27,5.19-.28a13.72,13.72,0,0,1,2.72.18,2.75,2.75,0,0,1,1.79.82c.31.37.84-.16.54-.54-1-1.21-3.15-1.19-4.55-1.21-1.9,0-3.79.18-5.69.28l.1.74A29,29,0,0,0,112.3,11q.84-.27,1.65-.57a5.57,5.57,0,0,0,1.46-.55c.65-.51-.1-1.4-.59-1.66a7.85,7.85,0,0,0-2.88-.6c-1.24-.09-2.49-.09-3.74-.07a13.7,13.7,0,0,1-2.72,0l.22.55A8.09,8.09,0,0,1,108,6.28a15.63,15.63,0,0,0,2.66-2.06c.33-.35-.2-.89-.54-.54Z"/></g></g></svg>
